Coordinates
nRows=223
nColumns=2
inDegrees=yes
endheader
time	ankle_angle_r	
3.49294	 -4.989713	
3.52621	 -4.996037	
3.55948	 -4.996031	
3.59274	 -4.995738	
3.62601	 -4.999998	
3.65927	 -5.004615	
3.69254	 -5.006526	
3.72581	 -5.006512	
3.75907	 -5.006023	
3.79234	 -5.007641	
3.8256	 -5.010363	
3.85887	 -5.010101	
3.89214	 -5.009326	
3.9254	 -5.012887	
3.95867	 -5.018467	
3.99194	 -5.021726	
4.0252	 -5.021277	
4.05847	 -5.018094	
4.09173	 -5.016279	
4.125	 -5.017854	
4.15827	 -5.019525	
4.19153	 -5.019145	
4.2248	 -5.017596	
4.25806	 -5.016528	
4.29133	 -5.016516	
4.3246	 -5.012625	
4.35786	 -5.000697	
4.39113	 -4.986930	
4.4244	 -4.977447	
4.45766	 -4.969383	
4.49093	 -4.960687	
4.52419	 -4.955456	
4.55746	 -4.958626	
4.59073	 -4.969063	
4.62399	 -4.976623	
4.65726	 -4.973943	
4.69052	 -4.966657	
4.72379	 -4.960510	
4.75706	 -4.953628	
4.79032	 -4.947499	
4.82359	 -4.947754	
4.85685	 -4.957127	
4.89012	 -4.974651	
4.92339	 -4.995523	
4.95665	 -5.012994	
4.98992	 -5.021981	
5.02319	 -5.022204	
5.05645	 -5.020165	
5.08972	 -5.022224	
5.12298	 -5.026802	
5.15625	 -5.030073	
5.18952	 -5.030457	
5.22278	 -5.026358	
5.25605	 -5.021352	
5.28931	 -5.022659	
5.32258	 -5.029452	
5.35585	 -5.034328	
5.38911	 -5.032849	
5.42238	 -5.027519	
5.45565	 -5.025444	
5.48891	 -5.029215	
5.52218	 -5.034320	
5.55544	 -5.037904	
5.58871	 -5.040034	
5.62198	 -5.040055	
5.65524	 -5.039717	
5.68851	 -5.040974	
5.72177	 -5.041876	
5.75504	 -5.041033	
5.78831	 -5.038340	
5.82157	 -5.033214	
5.85484	 -5.027692	
5.8881	 -5.024433	
5.92137	 -5.022966	
5.95464	 -5.022095	
5.9879	 -5.019671	
6.02117	 -5.013093	
6.05444	 -5.005695	
6.0877	 -5.002826	
6.12097	 -5.003577	
6.15423	 -5.005843	
6.1875	 -5.008705	
6.22077	 -5.008788	
6.25403	 -5.004784	
6.2873	 -4.999299	
6.32056	 -4.994951	
6.35383	 -4.994418	
6.3871	 -4.997586	
6.42036	 -4.998540	
6.45363	 -4.992966	
6.4869	 -4.983905	
6.52016	 -4.978759	
6.55343	 -4.983446	
6.58669	 -4.993726	
6.61996	 -4.997257	
6.65323	 -4.990270	
6.68649	 -4.979503	
6.71976	 -4.971037	
6.75302	 -4.970337	
6.78629	 -4.978970	
6.81956	 -4.988026	
6.85282	 -4.990944	
6.88609	 -4.992476	
6.91935	 -4.995840	
6.95262	 -4.997975	
6.98589	 -4.998922	
7.01915	 -5.001445	
7.05242	 -5.002740	
7.08569	 -4.997161	
7.11895	 -4.987813	
7.15222	 -4.985545	
7.18548	 -4.992406	
7.21875	 -4.998631	
7.25202	 -5.000255	
7.28528	 -5.001395	
7.31855	 -5.000911	
7.35181	 -4.996999	
7.38508	 -4.994466	
7.41835	 -4.996248	
7.45161	 -5.000681	
7.48488	 -5.004582	
7.51815	 -5.003790	
7.55141	 -4.998373	
7.58468	 -4.990647	
7.61794	 -4.979893	
7.65121	 -4.971298	
7.68448	 -4.972893	
7.71774	 -4.979822	
7.75101	 -4.984259	
7.78427	 -4.989368	
7.81754	 -5.000020	
7.85081	 -5.013802	
7.88407	 -5.022638	
7.91734	 -5.021110	
7.9506	 -5.013448	
7.98387	 -5.004897	
8.01714	 -4.994278	
8.0504	 -4.983841	
8.08367	 -4.980660	
8.11694	 -4.983999	
8.1502	 -4.988368	
8.18347	 -4.994044	
8.21673	 -5.001345	
8.25	 -5.004447	
8.28327	 -4.998586	
8.31653	 -4.989358	
8.3498	 -4.989207	
8.38306	 -5.000661	
8.41633	 -5.011990	
8.4496	 -5.014429	
8.48286	 -5.009230	
8.51613	 -4.999522	
8.5494	 -4.992325	
8.58266	 -4.996795	
8.61593	 -5.010432	
8.64919	 -5.022002	
8.68246	 -5.022806	
8.71573	 -5.011061	
8.74899	 -4.997450	
8.78226	 -4.994428	
8.81552	 -4.998016	
8.84879	 -4.998346	
8.88206	 -4.996484	
8.91532	 -4.997907	
8.94859	 -5.003412	
8.98185	 -5.009571	
9.01512	 -5.011590	
9.04839	 -5.008235	
9.08165	 -5.001635	
9.11492	 -4.992849	
9.14819	 -4.983775	
9.18145	 -4.978004	
9.21472	 -4.976506	
9.24798	 -4.977352	
9.28125	 -4.977330	
9.31452	 -4.973529	
9.34778	 -4.969683	
9.38105	 -4.975651	
9.41431	 -4.993833	
9.44758	 -5.012638	
9.48085	 -5.017546	
9.51411	 -5.006746	
9.54738	 -4.993219	
9.58065	 -4.989390	
9.61391	 -4.994104	
9.64718	 -4.998000	
9.68044	 -4.996561	
9.71371	 -4.993837	
9.74698	 -4.994844	
9.78024	 -4.996785	
9.81351	 -4.992509	
9.84677	 -4.982774	
9.88004	 -4.977174	
9.91331	 -4.982441	
9.94657	 -4.995468	
9.97984	 -5.006560	
10.0131	 -5.007524	
10.0464	 -4.998391	
10.0796	 -4.986279	
10.1129	 -4.979657	
10.1462	 -4.984105	
10.1794	 -4.996119	
10.2127	 -5.004639	
10.246	 -5.005630	
10.2792	 -5.003778	
10.3125	 -5.001109	
10.3458	 -4.996624	
10.379	 -4.989446	
10.4123	 -4.979595	
10.4456	 -4.971095	
10.4788	 -4.967898	
10.5121	 -4.968792	
10.5454	 -4.973001	
10.5786	 -4.981966	
10.6119	 -4.992079	
10.6452	 -4.996120	
10.6784	 -4.992424	
10.7117	 -4.986750	
10.745	 -4.984729	
10.7782	 -4.983978	
10.8115	 -4.979520	
10.8448	 -4.974703	
10.878	 -4.974424	
